<svg xmlns="http://www.w3.org/2000/svg" viewBox="0 0 96 96" style="--body:#498e96;--light:#b3e1d5;--wood:#406778;--gold:#dcb876;--dark:#3e3931"><title>Constellation Lens</title><defs><linearGradient id="body" x1="0" y1="0" x2=".6" y2="1"><stop stop-color="#b3e1d5"/><stop offset=".52" stop-color="#498e96"/><stop offset="1" stop-color="#406778"/></linearGradient><linearGradient id="metal" x1="0" y1="0" x2=".6" y2="1"><stop stop-color="#ede5d0"/><stop offset=".52" stop-color="#a9b8af"/><stop offset="1" stop-color="#64777b"/></linearGradient><linearGradient id="gold" x1="0" y1="0" x2=".6" y2="1"><stop stop-color="#ffdfa0"/><stop offset=".52" stop-color="#dcb876"/><stop offset="1" stop-color="#957044"/></linearGradient><linearGradient id="wood" x1="0" y1="0" x2=".6" y2="1"><stop stop-color="#c39b6a"/><stop offset=".52" stop-color="#406778"/><stop offset="1" stop-color="#594138"/></linearGradient><linearGradient id="gem" x1="0" y1="0" x2=".6" y2="1"><stop stop-color="#b3e1d5"/><stop offset=".52" stop-color="#498e96"/><stop offset="1" stop-color="#344e60"/></linearGradient></defs><style>.shine{fill:none;stroke:#b3e1d5;stroke-width:2.5;stroke-linecap:round}</style><ellipse cx="48" cy="86" rx="30" ry="4" fill="#20392d" opacity=".14"/><g stroke="#3e3931" stroke-width="2.1" stroke-linejoin="round" stroke-linecap="round"><path d="m26 66 4 14h36l4-14-22-9Z" fill="url(#gold)"/><path d="m48 10 23 17-6 34-17 14-17-14-6-34Z" fill="url(#gem)"/><path d="m48 14-8 27 8 26 9-26Z" fill="var(--light)" opacity=".5"/><path d="m48 39 6 9-6 9-6-9Z" fill="url(#gem)"/></g></svg>
