<svg xmlns="http://www.w3.org/2000/svg" viewBox="0 0 96 96" style="--body:#b86644;--light:#f0bc75;--wood:#754239;--gold:#dcb876;--dark:#3e3931"><title>Mourning Mantle</title><defs><linearGradient id="body" x1="0" y1="0" x2=".6" y2="1"><stop stop-color="#f0bc75"/><stop offset=".52" stop-color="#b86644"/><stop offset="1" stop-color="#754239"/></linearGradient><linearGradient id="metal" x1="0" y1="0" x2=".6" y2="1"><stop stop-color="#ede5d0"/><stop offset=".52" stop-color="#a9b8af"/><stop offset="1" stop-color="#64777b"/></linearGradient><linearGradient id="gold" x1="0" y1="0" x2=".6" y2="1"><stop stop-color="#ffdfa0"/><stop offset=".52" stop-color="#dcb876"/><stop offset="1" stop-color="#957044"/></linearGradient><linearGradient id="wood" x1="0" y1="0" x2=".6" y2="1"><stop stop-color="#c39b6a"/><stop offset=".52" stop-color="#754239"/><stop offset="1" stop-color="#594138"/></linearGradient><linearGradient id="gem" x1="0" y1="0" x2=".6" y2="1"><stop stop-color="#f0bc75"/><stop offset=".52" stop-color="#b86644"/><stop offset="1" stop-color="#344e60"/></linearGradient></defs><style>.shine{fill:none;stroke:#f0bc75;stroke-width:2.5;stroke-linecap:round}</style><ellipse cx="48" cy="86" rx="30" ry="4" fill="#20392d" opacity=".14"/><g stroke="#3e3931" stroke-width="2.1" stroke-linejoin="round" stroke-linecap="round"><path d="m31 13 17 9 17-9 17 28-15 12-3-12 13 43H19l13-43-4 12-15-12Z" fill="url(#body)"/><path d="m32 14 16 18 16-18M48 33v51M29 52h38" fill="none" stroke="var(--gold)"/><path d="m26 77 7-19m30 0 7 19" class="shine"/><path d="M52 39c-16-5-20 19-2 18-9-4-8-12 2-18Z" fill="url(#gold)"/><circle cx="20" cy="19" r="2" fill="var(--gold)" stroke="none"/><path d="m77 70 2 5 6 2-6 2-2 6-2-6-5-2 5-2Z" fill="var(--light)" stroke="none"/></g></svg>
