<svg xmlns="http://www.w3.org/2000/svg" viewBox="0 0 96 96" style="--body:#b86644;--light:#f0bc75;--wood:#754239;--gold:#dcb876;--dark:#3e3931"><title>Twin-Vent Bow</title><defs><linearGradient id="body" x1="0" y1="0" x2=".6" y2="1"><stop stop-color="#f0bc75"/><stop offset=".52" stop-color="#b86644"/><stop offset="1" stop-color="#754239"/></linearGradient><linearGradient id="metal" x1="0" y1="0" x2=".6" y2="1"><stop stop-color="#ede5d0"/><stop offset=".52" stop-color="#a9b8af"/><stop offset="1" stop-color="#64777b"/></linearGradient><linearGradient id="gold" x1="0" y1="0" x2=".6" y2="1"><stop stop-color="#ffdfa0"/><stop offset=".52" stop-color="#dcb876"/><stop offset="1" stop-color="#957044"/></linearGradient><linearGradient id="wood" x1="0" y1="0" x2=".6" y2="1"><stop stop-color="#c39b6a"/><stop offset=".52" stop-color="#754239"/><stop offset="1" stop-color="#594138"/></linearGradient><linearGradient id="gem" x1="0" y1="0" x2=".6" y2="1"><stop stop-color="#f0bc75"/><stop offset=".52" stop-color="#b86644"/><stop offset="1" stop-color="#344e60"/></linearGradient></defs><style>.shine{fill:none;stroke:#f0bc75;stroke-width:2.5;stroke-linecap:round}</style><ellipse cx="48" cy="86" rx="30" ry="4" fill="#20392d" opacity=".14"/><g stroke="#3e3931" stroke-width="2.1" stroke-linejoin="round" stroke-linecap="round"><path d="M29 12c47 9 48 63 0 72l8-14c31-14 31-29 0-44Z" fill="url(#wood)"/><path d="m29 12 6 36-6 36M13 48h66m-8-7 9 7-9 7" fill="none" stroke="var(--gold)"/><path d="m15 43 9 5-9 5" fill="var(--light)"/><path d="m48 38 3 7 8 3-8 3-3 8-3-8-8-3 8-3Z" fill="url(#gold)"/><circle cx="20" cy="19" r="2" fill="var(--gold)" stroke="none"/></g></svg>
