<svg xmlns="http://www.w3.org/2000/svg" viewBox="0 0 96 96" style="--body:#498e96;--light:#b3e1d5;--wood:#406778;--gold:#dcb876;--dark:#3e3931"><title>Remembered Stone</title><defs><linearGradient id="body" x1="0" y1="0" x2=".6" y2="1"><stop stop-color="#b3e1d5"/><stop offset=".52" stop-color="#498e96"/><stop offset="1" stop-color="#406778"/></linearGradient><linearGradient id="metal" x1="0" y1="0" x2=".6" y2="1"><stop stop-color="#ede5d0"/><stop offset=".52" stop-color="#a9b8af"/><stop offset="1" stop-color="#64777b"/></linearGradient><linearGradient id="gold" x1="0" y1="0" x2=".6" y2="1"><stop stop-color="#ffdfa0"/><stop offset=".52" stop-color="#dcb876"/><stop offset="1" stop-color="#957044"/></linearGradient><linearGradient id="wood" x1="0" y1="0" x2=".6" y2="1"><stop stop-color="#c39b6a"/><stop offset=".52" stop-color="#406778"/><stop offset="1" stop-color="#594138"/></linearGradient><linearGradient id="gem" x1="0" y1="0" x2=".6" y2="1"><stop stop-color="#b3e1d5"/><stop offset=".52" stop-color="#498e96"/><stop offset="1" stop-color="#344e60"/></linearGradient></defs><style>.shine{fill:none;stroke:#b3e1d5;stroke-width:2.5;stroke-linecap:round}</style><ellipse cx="48" cy="86" rx="30" ry="4" fill="#20392d" opacity=".14"/><g stroke="#3e3931" stroke-width="2.1" stroke-linejoin="round" stroke-linecap="round"><path d="M18 65C0 37 31 8 59 15 89 18 92 55 71 72L38 83Z" fill="url(#body)"/><path d="M31 67C14 42 49 21 66 39 79 57 51 69 43 51c-5-11 12-17 14-8" fill="none" stroke="var(--gold)" stroke-width="5"/><path d="M52 39c-16-5-20 19-2 18-9-4-8-12 2-18Z" fill="url(#gold)"/><circle cx="20" cy="19" r="2" fill="var(--gold)" stroke="none"/></g></svg>
