<svg xmlns="http://www.w3.org/2000/svg" viewBox="0 0 96 96" style="--body:#718ba7;--light:#d3e4e2;--wood:#696185;--gold:#dcb876;--dark:#3e3931"><title>Lantern Dust</title><defs><linearGradient id="body" x1="0" y1="0" x2=".6" y2="1"><stop stop-color="#d3e4e2"/><stop offset=".52" stop-color="#718ba7"/><stop offset="1" stop-color="#696185"/></linearGradient><linearGradient id="metal" x1="0" y1="0" x2=".6" y2="1"><stop stop-color="#ede5d0"/><stop offset=".52" stop-color="#a9b8af"/><stop offset="1" stop-color="#64777b"/></linearGradient><linearGradient id="gold" x1="0" y1="0" x2=".6" y2="1"><stop stop-color="#ffdfa0"/><stop offset=".52" stop-color="#dcb876"/><stop offset="1" stop-color="#957044"/></linearGradient><linearGradient id="wood" x1="0" y1="0" x2=".6" y2="1"><stop stop-color="#c39b6a"/><stop offset=".52" stop-color="#696185"/><stop offset="1" stop-color="#594138"/></linearGradient><linearGradient id="gem" x1="0" y1="0" x2=".6" y2="1"><stop stop-color="#d3e4e2"/><stop offset=".52" stop-color="#718ba7"/><stop offset="1" stop-color="#344e60"/></linearGradient></defs><style>.shine{fill:none;stroke:#d3e4e2;stroke-width:2.5;stroke-linecap:round}</style><ellipse cx="48" cy="86" rx="30" ry="4" fill="#20392d" opacity=".14"/><g stroke="#3e3931" stroke-width="2.1" stroke-linejoin="round" stroke-linecap="round"><path d="M19 67 28 36l38-8 14 33-16 21-33-2Z" fill="url(#gem)"/><path d="m32 29-8-10m27 5 6-13m15 23 13-11m-48 41 8-10 12 9m-25-18 4-9" class="shine"/><circle cx="20" cy="19" r="2" fill="var(--gold)" stroke="none"/></g></svg>
